<svg xmlns="http://www.w3.org/2000/svg" width="2782" height="425" viewBox="0 0 2782 425" version="1.1"><path d="M 246 92.496 C 223.751 96.974, 206.099 109.854, 197.045 128.218 C 188.081 146.399, 187.854 160.926, 195.999 195 C 207.596 243.514, 210.246 259.856, 210.350 283.500 C 210.403 295.742, 210.014 300.103, 208.233 307.221 C 202.971 328.252, 190.064 345.463, 168.733 359.894 C 163.427 363.484, 140.205 374.988, 138.250 374.995 C 136.505 375.002, 136.686 378.494, 138.509 380.008 C 140.630 381.767, 196.546 380.716, 211 378.645 C 260.564 371.543, 295.631 352.599, 309.768 325.291 C 316.264 312.741, 318.161 305.368, 318.722 290.500 C 319.395 272.668, 317.117 257.227, 305.560 201.264 C 300.302 175.806, 300.779 165.571, 307.575 158.049 C 312.239 152.887, 319.548 149.910, 329.185 149.250 L 337 148.714 337 119.857 L 337 91 294.750 91.094 C 264.262 91.162, 250.690 91.552, 246 92.496" stroke="none" fill="#ee7450" fill-rule="evenodd"/><path d="M 2209 206.500 L 2209 395 2219.500 395 L 2230 395 2230 206.500 L 2230 18 2219.500 18 L 2209 18 2209 206.500 M 64.742 49.557 C 44.261 52.745, 29.535 59.406, 18.495 70.476 C 10.712 78.280, 6.289 85.777, 2.842 97.007 L 0.542 104.500 0.240 193.191 C -0.055 279.854, -0.014 282.117, 2.029 292.143 C 8.782 325.281, 28.340 349.328, 61.313 365.036 C 72.281 370.261, 90.998 376.008, 97.525 376.154 C 104.920 376.320, 130.509 366.395, 145.432 357.572 C 155.187 351.805, 159.688 348.397, 167.870 340.583 C 173.335 335.364, 182 324.009, 182 322.066 C 182 321.723, 175.986 321.618, 168.635 321.833 C 153.886 322.264, 147.689 321.331, 139.461 317.438 C 128.606 312.303, 121.196 302.106, 116.721 286.144 C 114.649 278.755, 114.566 276.340, 114.235 213.776 L 113.893 149.053 129.197 148.776 L 144.500 148.500 144.765 119.750 L 145.031 91 129.515 91 L 114 91 114 69.500 L 114 48 93.750 48.097 C 82.122 48.152, 69.771 48.774, 64.742 49.557 M 1059.500 126.629 C 1049.502 128.723, 1038.944 133.994, 1032.452 140.133 C 1021.688 150.314, 1016.323 167.121, 1018.659 183.340 C 1021.769 204.929, 1033.948 215.255, 1071.162 227.858 C 1103.651 238.860, 1109.771 243.744, 1110.780 259.477 C 1111.649 273.011, 1106.367 282.293, 1094.813 287.534 C 1086.620 291.251, 1072.970 292.099, 1063 289.512 C 1054.296 287.253, 1041.020 280.223, 1032.749 273.493 C 1029.036 270.472, 1025.812 268, 1025.585 268 C 1024.807 268, 1012 283.792, 1012 284.751 C 1012 286.108, 1021.600 294.979, 1027.256 298.850 C 1034.289 303.662, 1045.443 308.684, 1054.500 311.116 C 1066.249 314.271, 1086.435 314.288, 1097.465 311.152 C 1108.345 308.060, 1116.438 303.585, 1123.139 296.958 C 1135.120 285.110, 1140.300 266.852, 1136.907 248.434 C 1133.318 228.957, 1120.075 218.021, 1085.500 205.982 C 1051.982 194.312, 1045.075 188.696, 1045.022 173.066 C 1044.983 161.774, 1050.443 154.303, 1062 149.832 C 1069.900 146.775, 1084.974 146.821, 1094 149.929 C 1102.828 152.968, 1109.909 157.150, 1116.633 163.295 L 1122.267 168.444 1127.681 162.472 C 1137.596 151.537, 1137.478 152.737, 1129.399 145.114 C 1114.500 131.056, 1097.943 124.905, 1075.500 125.089 C 1070.550 125.130, 1063.350 125.823, 1059.500 126.629 M 429 140 L 429 152 456.500 152 L 484 152 484 231.500 L 484 311 497 311 L 510 311 510 231.500 L 510 152 537.500 152 L 565 152 565 140 L 565 128 497 128 L 429 128 429 140 M 1879 219.500 L 1879 309 1890.500 309 L 1902 309 1902 219.500 L 1902 130 1890.500 130 L 1879 130 1879 219.500 M 1942 219.424 L 1942 309 1973.750 308.994 C 2009.176 308.988, 2019.576 307.968, 2033.637 303.121 C 2045.159 299.149, 2052.243 294.753, 2060.687 286.334 C 2066.365 280.672, 2068.824 277.210, 2072.402 269.834 C 2079.077 256.077, 2081.043 246.868, 2081.714 226.216 C 2082.871 190.588, 2076.512 169.428, 2059.547 152.445 C 2049.926 142.814, 2039.906 137.210, 2025.224 133.247 C 2015.720 130.683, 2014.667 130.614, 1978.750 130.236 L 1942 129.848 1942 219.424 M 1404.646 147.250 C 1404.322 150.688, 1403.803 157.550, 1403.490 162.500 C 1402.470 178.669, 1403.147 177.463, 1393.981 179.443 L 1386 181.168 1386 189.584 L 1386 198 1394 198 L 1402 198 1402 245.318 C 1402 298.300, 1402.169 299.860, 1408.680 307.068 C 1413.445 312.342, 1420.619 314.506, 1430.452 313.635 C 1438.091 312.959, 1447.735 310.665, 1449.231 309.169 C 1450.743 307.657, 1447.736 290.428, 1446.027 290.810 C 1433.413 293.630, 1428.860 292.906, 1427.080 287.800 C 1426.371 285.766, 1426 269.813, 1426 241.351 L 1426 198 1436.500 198 L 1447 198 1447 187.500 L 1447 177 1436.500 177 L 1426 177 1426 159 L 1426 141 1415.616 141 L 1405.233 141 1404.646 147.250 M 1965 219.486 L 1965 288.211 1988.250 287.726 C 2013.552 287.198, 2018.288 286.408, 2029.217 280.891 C 2040.314 275.289, 2047.475 266.774, 2052.253 253.500 C 2055.717 243.875, 2057.002 234.457, 2056.987 218.808 C 2056.950 181.633, 2043.654 160.453, 2015.947 153.436 C 2011.372 152.277, 2003.039 151.652, 1987.250 151.282 L 1965 150.761 1965 219.486 M 2751.799 151.223 C 2751.689 151.375, 2751.351 161.400, 2751.049 173.500 L 2750.500 195.500 2746.500 195.269 C 2720.194 193.752, 2717.761 193.768, 2711.380 195.495 C 2696.940 199.404, 2687.261 209.408, 2683.157 224.666 C 2677.747 244.780, 2677.740 262.062, 2683.133 283.429 C 2685.561 293.052, 2687.009 295.970, 2692.087 301.479 C 2702.539 312.818, 2725.836 315.927, 2744.435 308.464 C 2750.294 306.113, 2750.387 306.108, 2751.742 308.042 C 2752.992 309.827, 2754.345 310, 2767.038 310 C 2780.650 310, 2780.974 309.950, 2781.506 307.750 C 2781.806 306.512, 2781.927 270.850, 2781.775 228.500 L 2781.500 151.500 2766.750 151.223 C 2758.637 151.071, 2751.910 151.071, 2751.799 151.223 M 597 175.608 C 570.491 182.725, 555.001 203.320, 551.954 235.500 C 549.588 260.490, 556.345 284.382, 569.489 297.500 C 580.959 308.948, 593.168 313.407, 613 313.392 C 626.861 313.382, 636.255 311.367, 647.532 305.985 C 654.540 302.640, 663.008 296.457, 662.982 294.704 C 662.972 294.042, 660.917 289.987, 658.415 285.694 L 653.867 277.888 650.683 279.985 C 638.608 287.938, 626.458 291.960, 614.432 291.985 C 593.485 292.029, 580.303 279.758, 578.304 258.354 L 577.711 252 621.294 252 L 664.877 252 665.589 247.255 C 666.477 241.336, 664.544 219.515, 662.422 211.500 C 657.187 191.727, 644.428 178.906, 626.201 175.105 C 618.858 173.574, 603.598 173.837, 597 175.608 M 724.365 175.429 C 712.668 178.095, 700.082 184.238, 691.791 191.328 L 688.083 194.500 692.630 200.500 C 695.130 203.800, 697.759 207.313, 698.472 208.306 C 699.682 209.993, 700.278 209.778, 707.541 205.037 C 717.759 198.366, 726.902 195.536, 738 195.608 C 756.055 195.725, 764.001 204.527, 764 224.409 L 763.999 232.500 745.250 232.511 C 728.799 232.521, 725.543 232.798, 718.691 234.774 C 698.619 240.563, 687.816 251.124, 684.873 267.833 C 682.815 279.514, 686.608 293.929, 693.937 302.275 C 700.660 309.933, 715.737 314.782, 729.132 313.595 C 743.307 312.340, 757.008 305.501, 763 296.690 C 764.375 294.668, 765.837 293.011, 766.250 293.007 C 766.663 293.003, 767.004 294.688, 767.009 296.750 C 767.013 298.813, 767.303 302.878, 767.652 305.783 L 768.286 311.067 778.393 310.783 L 788.500 310.500 788.796 267 C 789.096 222.937, 788.411 209.294, 785.481 200.899 C 781.654 189.938, 772.522 181.172, 760.500 176.920 C 752.709 174.164, 733.410 173.368, 724.365 175.429 M 872.041 174.679 C 863.793 176.407, 854.454 181.799, 847.500 188.849 C 842.772 193.642, 842.180 193.032, 842.070 183.250 L 842 177 831 177 L 820 177 820 244.031 L 820 311.062 832.250 310.781 L 844.500 310.500 844.760 262.321 L 845.019 214.143 850.617 209.153 C 858.740 201.914, 866.901 197.846, 874.375 197.312 C 882.310 196.745, 886.564 198.839, 889.995 205 L 892.500 209.500 892.793 260.250 L 893.086 311 905.543 311 L 918 311 918 262.584 L 918 214.168 924.194 208.563 C 935.631 198.213, 947.110 194.744, 956.368 198.839 C 960.235 200.549, 961.474 201.779, 963.289 205.711 C 965.464 210.422, 965.505 211.314, 965.785 260.750 L 966.070 311 978.606 311 L 991.141 311 990.756 258.250 C 990.345 201.980, 990.189 200.110, 985.093 190.220 C 980.139 180.605, 970.422 174.925, 957.661 174.187 C 943.412 173.362, 930.768 178.089, 919.185 188.570 C 913.424 193.784, 913.190 193.892, 912.617 191.609 C 912.290 190.307, 910.006 186.998, 907.541 184.256 C 901.256 177.267, 895.019 174.710, 883.500 174.403 C 878.550 174.271, 873.394 174.395, 872.041 174.679 M 1304.100 176.048 C 1296.515 178.034, 1290.461 181.058, 1285.190 185.493 C 1277.456 192.001, 1272.280 205.538, 1273.335 216.498 C 1275.193 235.798, 1284.961 244.167, 1316.026 253.075 C 1332.144 257.697, 1338.796 260.654, 1341.875 264.568 C 1348.774 273.339, 1343.409 287.019, 1331.707 290.494 C 1325.239 292.415, 1314.042 292.422, 1306.703 290.511 C 1299.524 288.641, 1290.047 283.939, 1283.310 278.904 L 1278.119 275.025 1272.560 282.638 C 1269.502 286.825, 1267 290.603, 1267 291.033 C 1267 292.876, 1277.541 301.059, 1284.740 304.804 C 1307.710 316.754, 1335.574 316.831, 1353.889 304.994 C 1365.666 297.382, 1371.614 284.925, 1370.808 269.563 C 1370.236 258.666, 1366.901 251.561, 1359.649 245.788 C 1352.751 240.298, 1345.456 237.108, 1327.141 231.572 C 1309.525 226.247, 1305.289 224.321, 1301.626 219.967 C 1299.518 217.462, 1299 215.807, 1299 211.571 C 1299 200.982, 1305.772 195.729, 1320.163 195.154 C 1332.917 194.644, 1342.573 197.800, 1353.719 206.122 L 1358.939 210.018 1364.700 202.364 L 1370.461 194.710 1364.707 189.480 C 1349.953 176.072, 1325.068 170.557, 1304.100 176.048 M 1508.725 175.502 C 1491.832 179.782, 1479.197 190.218, 1471.193 206.500 C 1457.051 235.267, 1461.918 278.103, 1481.560 297.745 C 1502.335 318.521, 1542.910 319.229, 1570.250 299.293 C 1572.862 297.388, 1575 295.477, 1575 295.046 C 1575 294.134, 1565.955 278, 1565.444 278 C 1565.255 278, 1563.085 279.360, 1560.622 281.023 C 1542.586 293.194, 1518.602 295.639, 1505.267 286.664 C 1496.533 280.785, 1491.398 271.040, 1489.506 256.750 L 1488.877 252 1533.067 252 L 1577.256 252 1576.730 235.250 C 1576.169 217.373, 1574.465 208.779, 1569.573 199.161 C 1564.195 188.589, 1555.388 180.718, 1544.790 177.010 C 1536.556 174.130, 1517.313 173.325, 1508.725 175.502 M 1649.977 176.276 C 1643.672 178.426, 1632.509 185.529, 1628.595 189.881 C 1625.647 193.160, 1625 192.477, 1625 186.082 C 1625 176.766, 1625.299 177, 1613.393 177 L 1603 177 1603 244 L 1603 311 1615 311 L 1627 311 1627 263.089 L 1627 215.177 1633.430 209.285 C 1641.585 201.813, 1649.474 197.877, 1657.456 197.299 C 1665.527 196.715, 1669.614 198.889, 1673 205.568 L 1675.500 210.500 1675.793 260.750 L 1676.087 311 1688.543 311 L 1701 311 1701 262.608 L 1701 214.215 1706.952 208.705 C 1722.349 194.450, 1739.954 193.151, 1746.190 205.810 C 1748.497 210.494, 1748.500 210.563, 1748.801 260.750 L 1749.102 311 1761.051 311 L 1773 311 1773 259.049 C 1773 205.777, 1772.719 201.175, 1768.918 192.309 C 1766.311 186.226, 1759.791 179.603, 1753.727 176.877 C 1746.813 173.768, 1730.492 173.495, 1722 176.347 C 1715.620 178.489, 1705 185.292, 1700.099 190.378 L 1696.698 193.907 1693.599 188.744 C 1689.807 182.428, 1683.603 177.554, 1676.774 175.526 C 1669.213 173.280, 1657.828 173.599, 1649.977 176.276 M 1144.004 177.750 C 1144.006 178.162, 1154.286 207.975, 1166.850 244 L 1189.692 309.500 1186.992 317.500 C 1181.662 333.290, 1177.312 339.464, 1170.419 341.018 C 1166.905 341.811, 1150.822 340.626, 1148.891 339.433 C 1147.944 338.848, 1147.488 340.633, 1146.071 350.462 C 1145.363 355.369, 1145.385 357.620, 1146.144 358.089 C 1148.759 359.705, 1162.584 361.211, 1171.147 360.812 C 1185.775 360.132, 1192.689 356.269, 1199.446 345 C 1204.194 337.084, 1205.630 333.201, 1234.046 251.500 L 1259.784 177.500 1248.200 177.217 C 1241.829 177.061, 1236.130 177.120, 1235.535 177.348 C 1234.940 177.576, 1227.280 200.310, 1218.512 227.867 C 1209.745 255.424, 1202.287 277.640, 1201.939 277.235 C 1201.390 276.597, 1173.289 189.014, 1170.821 180.250 L 1169.906 177 1156.953 177 C 1149.829 177, 1144.002 177.338, 1144.004 177.750 M 2395.500 194.050 C 2381.340 195.310, 2370.638 200.903, 2364.264 210.376 C 2360.004 216.705, 2358.677 221.794, 2358.754 231.500 C 2358.919 252.292, 2367.147 260.127, 2394.500 265.535 C 2417.245 270.032, 2419 270.818, 2419 276.500 C 2419 282.528, 2416.654 283.461, 2400.648 283.797 C 2392.186 283.974, 2382.085 283.508, 2375.513 282.638 C 2368.375 281.693, 2363.908 281.514, 2362.763 282.127 C 2361.237 282.944, 2361 284.606, 2361 294.500 C 2361 304.809, 2361.191 306.032, 2362.950 306.973 C 2364.023 307.547, 2370.210 308.965, 2376.700 310.124 C 2391.195 312.712, 2414.672 313.213, 2423 311.113 C 2435.240 308.026, 2443.325 301.838, 2447.856 292.086 C 2450.152 287.145, 2450.453 285.229, 2450.461 275.500 C 2450.469 266.058, 2450.133 263.750, 2448.093 259.206 C 2445.200 252.764, 2439.577 247.741, 2432.079 244.906 C 2429.011 243.745, 2419.075 241.265, 2410 239.395 C 2397.060 236.729, 2393.122 235.541, 2391.750 233.887 C 2388.436 229.894, 2390.004 224.892, 2395.128 223.105 C 2399.522 221.573, 2416.004 221.757, 2431.500 223.510 C 2438.650 224.318, 2445.063 224.985, 2445.750 224.990 C 2447.272 225.002, 2447.565 200.467, 2446.054 199.534 C 2444.304 198.452, 2423.833 195.032, 2415.630 194.451 C 2411.158 194.134, 2406.600 193.755, 2405.500 193.607 C 2404.400 193.459, 2399.900 193.659, 2395.500 194.050 M 2516.500 195.832 C 2513.750 196.861, 2509.802 198.455, 2507.727 199.375 C 2504.161 200.954, 2503.919 200.949, 2503.300 199.273 C 2502.198 196.286, 2500.945 196.031, 2487.285 196.015 C 2475.208 196.001, 2473.981 196.168, 2473.029 197.946 C 2472.326 199.259, 2472.071 225.511, 2472.244 278.696 L 2472.500 357.500 2487.904 357.500 L 2503.309 357.500 2503.404 334.500 L 2503.500 311.500 2506 311.816 C 2513.467 312.761, 2536.075 312.297, 2541 311.097 C 2553.435 308.068, 2562.941 300.743, 2567.572 290.620 C 2572.212 280.479, 2573.420 272.850, 2573.369 254 C 2573.278 220.813, 2567.229 206.161, 2550.144 197.750 C 2544.075 194.763, 2542.652 194.478, 2532.521 194.230 C 2523.718 194.014, 2520.494 194.337, 2516.500 195.832 M 602.500 196.340 C 596.288 198.396, 592.815 200.508, 588.806 204.668 C 584.335 209.305, 579.261 219.816, 578.376 226.273 L 577.728 231 609.364 231 L 641 231 641 226.105 C 641 214.180, 634.587 202.403, 625.568 197.762 C 620.507 195.158, 608.336 194.408, 602.500 196.340 M 1515.500 195.930 C 1502.969 198.961, 1492.799 210.947, 1490.196 225.750 L 1489.273 231 1521.281 231 L 1553.289 231 1552.699 224.684 C 1551.339 210.118, 1544.413 199.685, 1534.061 196.611 C 1528.459 194.947, 1520.736 194.664, 1515.500 195.930 M 2614.205 198.836 C 2606.821 201.468, 2602.031 205.674, 2598.330 212.779 C 2589.217 230.274, 2595.897 252.027, 2612.751 259.744 C 2617.042 261.708, 2619.696 262.198, 2625.818 262.154 C 2640.644 262.047, 2650.500 255.942, 2656.254 243.297 C 2659.599 235.946, 2659.327 223.530, 2655.644 215.500 C 2650.084 203.378, 2641.702 197.859, 2628 197.297 C 2621.525 197.032, 2618.238 197.399, 2614.205 198.836 M 2724.395 221.018 C 2719.436 222.558, 2716.161 226.675, 2713.750 234.405 C 2709.799 247.065, 2711.347 271.495, 2716.609 279.526 C 2717.428 280.776, 2719.418 282.345, 2721.031 283.013 C 2725.001 284.657, 2743.487 283.911, 2747.500 281.944 L 2750.500 280.474 2750.799 254.987 C 2751.108 228.633, 2750.492 222.827, 2747.241 221.492 C 2744.392 220.322, 2727.748 219.977, 2724.395 221.018 M 2513 222.643 C 2502.339 225.214, 2503 223.029, 2503 255.686 C 2503 281.783, 2503.141 284.118, 2504.750 284.751 C 2505.713 285.129, 2511.225 285.453, 2517 285.470 C 2533.195 285.517, 2537.238 282.595, 2540.582 268.424 C 2542.437 260.568, 2542.060 241.146, 2539.934 235 C 2535.944 223.464, 2526.866 219.299, 2513 222.643 M 734.807 252.018 C 717.322 254.012, 708.972 261.581, 709.016 275.399 C 709.052 286.552, 716.556 293, 729.498 293 C 735.511 293, 737.679 292.501, 742.811 289.936 C 754.031 284.330, 762.728 271.254, 763.756 258.446 L 764.274 252 760.788 252 C 758.870 252, 753.971 251.807, 749.901 251.571 C 745.830 251.335, 739.038 251.536, 734.807 252.018 M 2617.929 276.308 C 2605.244 279.894, 2596.261 289.407, 2594.506 301.113 C 2593.311 309.082, 2593.008 309.001, 2623.821 308.994 C 2651.937 308.989, 2657.441 308.338, 2658.535 304.890 C 2659.645 301.392, 2655.119 291.292, 2649.865 285.542 C 2641.897 276.824, 2629.145 273.137, 2617.929 276.308" stroke="none" fill="#1188ca" fill-rule="evenodd"/></svg>