<svg xmlns="http://www.w3.org/2000/svg" viewBox="0 0 396.55 88.58" width="155px" height="50px">
  <g id="Livello_2" data-name="Livello 2">
    <g id="Livello_1-2" data-name="Livello 1">
      <g>
        <g>
          <g>
            <path d="M46.27,86.58V2h306a42.27,42.27,0,1,1,0,84.54h-2v0h-304Z" style="fill: #fff"/>
            <path d="M352.28,4a40.27,40.27,0,1,1,0,80.54l-4,0h-300V4h304m0-4h-308V88.58h308v0a44.27,44.27,0,1,0,0-88.53Z" style="fill: #80bc00"/>
          </g>
          <g>
            <circle cx="44.28" cy="44.27" r="42.27" style="fill: #80bc00"/>
            <path d="M44.27,4A40.27,40.27,0,1,1,4,44.27,40.32,40.32,0,0,1,44.27,4m0-4A44.27,44.27,0,1,0,88.54,44.27,44.27,44.27,0,0,0,44.27,0Z" style="fill: #80bc00"/>
          </g>
          <g>
            <path d="M26.32,25.39h7.47V61.2H26.32V25.39Z" style="fill: #fff"/>
            <path d="M41.11,25.39H54.5q8.22,0,12.81,4.46T71.9,43.09a22,22,0,0,1-1.28,7.82,15.16,15.16,0,0,1-3.69,5.67A15.37,15.37,0,0,1,61.06,60a24.68,24.68,0,0,1-7.82,1.15H41.1V25.39ZM53.4,54.83a13.3,13.3,0,0,0,5-.83,8.18,8.18,0,0,0,3.33-2.38,10,10,0,0,0,1.88-3.69,17.74,17.74,0,0,0,.6-4.79,19.81,19.81,0,0,0-.53-4.74A9.26,9.26,0,0,0,62,34.81a7.7,7.7,0,0,0-3-2.26,11.27,11.27,0,0,0-4.49-.8H48.57V54.82H53.4Z" style="fill: #fff"/>
          </g>
        </g>
        <g>
          <path d="M103.35,26.12a6.85,6.85,0,0,1,2.44-.35,7.19,7.19,0,0,1,2.55.35V60.73a7.78,7.78,0,0,1-2.5.33,6.77,6.77,0,0,1-2.49-.33Z" style="fill: #0033a1"/>
          <path d="M137,60.74a7.28,7.28,0,0,1-2.46.33,6.84,6.84,0,0,1-2.43-.33V43.09c0-2.75-1.42-4.32-4.56-4.32A6.75,6.75,0,0,0,122,41.91V60.74a7.62,7.62,0,0,1-2.45.33,6.54,6.54,0,0,1-2.44-.33V35.63a6.61,6.61,0,0,1,2.44-.33,7.62,7.62,0,0,1,2.45.33v2.25a9.53,9.53,0,0,1,7.41-3.07c4.89,0,7.59,3,7.59,7.39V60.74Z" style="fill: #0033a1"/>
          <path d="M154.41,24.3a13.29,13.29,0,0,1,5.38,1,5.32,5.32,0,0,1-1.29,3.44,12.25,12.25,0,0,0-3.77-.54c-2.8,0-3.63,1.27-3.63,3.87v3.19h6.12a7.13,7.13,0,0,1,0,3.67H151.1V60.73a7.32,7.32,0,0,1-2.45.33,6.48,6.48,0,0,1-2.44-.33V39H143a9.85,9.85,0,0,1-.25-1.86,6,6,0,0,1,.25-1.8h3.25V32.36c0-4.77,2-8.06,8.2-8.06" style="fill: #0033a1"/>
          <path d="M172.57,34.81c6.78,0,10.89,3.66,10.89,13.38s-4.17,13.38-10.89,13.38-10.86-3.67-10.86-13.38,4.16-13.38,10.86-13.38m0,3.76c-3.56,0-5.87,2.07-5.87,9.61s2.3,9.6,5.87,9.6,5.85-2.06,5.85-9.6-2.27-9.61-5.85-9.61" style="fill: #0033a1"/>
          <path d="M203.83,25.28c5.43,0,8.37,1.67,8.37,1.67a4.86,4.86,0,0,1-1.47,3.72,19.15,19.15,0,0,0-6.32-1.12c-5.68,0-9.66,3-9.66,13.92s4,13.73,9.66,13.73a21,21,0,0,0,6.82-1.13,5.51,5.51,0,0,1,1.51,3.83,20.78,20.78,0,0,1-8.91,1.66c-9.38,0-14.27-6.16-14.27-18.13s4.85-18.15,14.27-18.15" style="fill: #0033a1"/>
          <path d="M227.55,34.81c7.11,0,9.37,3.18,9.37,9.51V60.74a4,4,0,0,1-1.92.33,5.16,5.16,0,0,1-2-.33l-.74-3.14c-1.26,2.6-4,4-7.69,4-4.61,0-7.6-2.69-7.6-8.18s3.3-7.7,9.43-7.7A49.06,49.06,0,0,1,232,46V44.17c0-3.33-1.28-5.25-5.05-5.25a20.23,20.23,0,0,0-6.57,1.24,3.85,3.85,0,0,1-1.13-1.47,4.27,4.27,0,0,1-.29-2.07,21.07,21.07,0,0,1,8.57-1.81M227.07,49c-3.29,0-5,1.28-5,4.38s1.61,4.4,4.26,4.4c3.86,0,5.68-3.28,5.68-6.77V49.3c-1.12-.08-3.08-.29-4.94-.29" style="fill: #0033a1"/>
          <path d="M271,34.81c4.66,0,7.31,3,7.31,7.39V60.74a7.35,7.35,0,0,1-2.46.33,6.38,6.38,0,0,1-2.43-.33V43.09c0-2.75-1.29-4.32-4.28-4.32a6.18,6.18,0,0,0-5.24,3.14V60.74a7.15,7.15,0,0,1-2.42.33,6.54,6.54,0,0,1-2.44-.33V43.09c0-2.75-1.26-4.32-4.26-4.32a6.48,6.48,0,0,0-5.23,3.09V60.74a7.23,7.23,0,0,1-2.42.33,6.67,6.67,0,0,1-2.46-.33V35.63a6.67,6.67,0,0,1,2.46-.33,7.23,7.23,0,0,1,2.42.33v2.21a9.14,9.14,0,0,1,7.05-3c2.85,0,5,1,6.38,3.57a9.83,9.83,0,0,1,8-3.57" style="fill: #0033a1"/>
          <path d="M290,49.71c.4,5.83,2.76,7.69,6.83,7.69A11.93,11.93,0,0,0,302.64,56a5.17,5.17,0,0,1,1.57,3.52s-2.79,2.07-8.14,2.07C288.52,61.57,285,56.91,285,48c0-9.26,4.36-13.22,10.89-13.22,6,0,9.69,3.32,9.69,9.84a21.29,21.29,0,0,1-.53,5.06H290Zm5.85-11c-3.19,0-5.44,2.1-5.85,7.55h10.5a16.71,16.71,0,0,0,.15-2.2c0-2.9-1.17-5.35-4.8-5.35" style="fill: #0033a1"/>
          <path d="M323,34.85a7.62,7.62,0,0,1,4.25,1.22,5.53,5.53,0,0,1-2.14,4.12,5,5,0,0,0-3-1c-1.91,0-3.78,1.47-5,3.71V60.74a7.43,7.43,0,0,1-2.46.33,6.67,6.67,0,0,1-2.46-.33V35.63a6.67,6.67,0,0,1,2.46-.33,7.43,7.43,0,0,1,2.46.33V39c1.85-3.08,4-4.16,6-4.16" style="fill: #0033a1"/>
          <path d="M336.12,49.71c.39,5.83,2.74,7.69,6.82,7.69A11.8,11.8,0,0,0,348.71,56a5.09,5.09,0,0,1,1.58,3.52s-2.78,2.07-8.13,2.07c-7.55,0-11.09-4.66-11.09-13.53,0-9.26,4.38-13.22,10.88-13.22,6.05,0,9.72,3.32,9.72,9.84a21.29,21.29,0,0,1-.53,5.06h-15Zm5.82-11c-3.18,0-5.43,2.1-5.82,7.55h10.49a16.71,16.71,0,0,0,.15-2.2c0-2.9-1.17-5.35-4.82-5.35" style="fill: #0033a1"/>
        </g>
      </g>
    </g>
  </g>
</svg>
